<svg width="375" height="315" viewBox="0 0 375 315" fill="none" xmlns="http://www.w3.org/2000/svg">
<g filter="url(#filter0_f_132_1151)">
<rect x="40" y="113" width="295" height="152" rx="20" fill="#240F4F"/>
</g>
<g clip-path="url(#clip0_132_1151)">
<rect x="24" width="327" height="295" fill="url(#paint0_linear_132_1151)"/>
<g style="mix-blend-mode:soft-light" opacity="0.2">
<path opacity="0.25" d="M236.056 295C313.288 295 375.896 280.435 375.896 262.467C375.896 244.5 313.288 229.934 236.056 229.934C158.824 229.934 96.2146 244.5 96.2146 262.467C96.2146 280.435 158.824 295 236.056 295Z" fill="#042030"/>
<path d="M345.574 105.465L236.056 142.883L126.426 105.465L74 181.634L236.056 237.04L398 181.634L345.574 105.465Z" fill="#4E2999"/>
<path opacity="0.45" d="M93.1046 178.525L227.503 229.934L181.297 184.188C181.297 184.188 105.434 165.867 93.1046 178.525Z" fill="#240F4F"/>
<path opacity="0.45" d="M379.007 178.525L244.608 229.934L290.815 184.188C290.703 184.188 366.566 165.867 379.007 178.525Z" fill="#240F4F"/>
<path d="M236.056 237.04L74 181.634V188.852L236.056 244.257L398 188.852V181.634L236.056 237.04Z" fill="#994EF8"/>
<path d="M149.752 270.35L168.523 221.162L228.947 241.815L149.752 270.35Z" fill="#3B1E77"/>
<path opacity="0.45" d="M154.972 256.138L228.947 241.815L168.523 221.162L154.972 256.138Z" fill="#3B1E77"/>
<path d="M236.056 239.261L149.752 270.35L156.194 277.124L236.056 248.699L315.806 277.124L322.359 270.35L236.056 239.261Z" fill="#994EF8"/>
<path d="M322.359 270.35L303.477 221.162L243.053 241.815L322.359 270.35Z" fill="#3B1E77"/>
<path opacity="0.45" d="M317.028 256.138L243.053 241.815L303.477 221.162L317.028 256.138Z" fill="#3B1E77"/>
<path d="M236.055 248.699C239.307 248.699 241.942 246.064 241.942 242.814C241.942 239.564 239.307 236.929 236.055 236.929C232.804 236.929 230.169 239.564 230.169 242.814C230.169 246.064 232.804 248.699 236.055 248.699Z" fill="white" fill-opacity="0.5"/>
<path d="M340.909 105.465L236.056 157.651L131.203 105.465C126.427 111.794 87.9952 175.861 87.9952 175.861C88.4395 175.861 88.7728 175.972 89.217 175.972C185.628 185.632 212.397 215.944 221.283 223.272C230.169 230.711 236.167 229.934 236.167 229.934C236.167 229.934 242.165 230.711 251.05 223.272C259.936 215.944 286.705 185.632 383.116 175.972C383.561 175.972 383.894 175.861 384.338 175.861C384.116 175.861 345.574 111.905 340.909 105.465Z" fill="#F5B304"/>
<path d="M384.116 175.861C383.672 175.861 383.338 175.972 382.894 175.972C286.483 185.632 259.714 215.944 250.828 223.272C241.942 230.711 235.944 229.934 235.944 229.934C235.944 229.934 229.947 230.711 221.061 223.272C212.175 215.944 185.406 185.632 88.9949 175.972C88.5506 175.972 88.2173 175.861 87.7731 175.861C86.9955 177.082 87.7731 177.97 87.7731 177.97C185.184 187.408 211.064 217.831 219.95 225.271C228.836 232.599 235.833 232.044 235.833 232.044C235.833 232.044 242.831 232.599 251.717 225.271C260.603 217.942 286.483 187.519 383.894 177.97C384.116 177.97 384.893 177.082 384.116 175.861Z" fill="#994EF8"/>
<path d="M336.91 99.3581C283.262 86.4782 235.944 130.559 235.944 130.559C235.944 130.559 188.627 86.4782 134.979 99.3581C134.979 99.3581 119.762 122.675 98.7693 162.314C98.7693 162.314 204.4 174.195 235.944 218.498C267.489 174.195 373.12 162.314 373.12 162.314C352.127 122.675 336.91 99.3581 336.91 99.3581Z" fill="#F5EFFB"/>
<path d="M373.12 162.314C373.12 162.314 267.489 174.195 235.944 218.498C204.511 174.195 98.8803 162.314 98.8803 162.314C98.8803 162.314 98.8803 165.867 92.9935 172.863C92.9935 172.863 188.85 179.747 223.726 219.497C231.946 228.824 235.944 227.713 235.944 227.713C235.944 227.713 240.054 228.824 248.163 219.497C282.928 179.747 378.896 172.863 378.896 172.863C373.12 165.756 373.12 162.314 373.12 162.314Z" fill="#DFCBF4"/>
<path d="M330.912 104.022C330.912 104.022 290.814 93.8064 235.944 136.332C181.185 93.9174 140.977 104.022 140.977 104.022L113.875 156.652C196.291 162.314 235.944 203.952 235.944 203.952C235.944 203.952 275.597 162.314 358.014 156.652L330.912 104.022ZM236.056 198.956C236.056 198.956 198.957 160.982 120.317 153.543L143.087 106.242C143.087 106.242 182.518 98.5809 236.056 138.775C289.593 98.5809 329.024 106.242 329.024 106.242L351.794 153.543C273.154 160.982 236.056 198.956 236.056 198.956Z" fill="#863ED5"/>
<path opacity="0.2" d="M246.163 175.965C260.973 165.046 307.253 140.885 338.354 144.216" stroke="#863ED5" stroke-width="3" stroke-linecap="round"/>
<path opacity="0.2" d="M246.163 145.326C259.307 135.038 293.48 114.882 325.025 116.555" stroke="#863ED5" stroke-width="3" stroke-linecap="round"/>
<path opacity="0.2" d="M246.163 160.871C260.418 149.792 297.479 128.084 331.689 129.887" stroke="#863ED5" stroke-width="3" stroke-linecap="round"/>
<path opacity="0.2" d="M227.281 175.965C212.471 165.046 166.191 140.885 135.09 144.216" stroke="#863ED5" stroke-width="3" stroke-linecap="round"/>
<path opacity="0.2" d="M227.281 145.326C214.137 135.038 179.964 114.882 148.419 116.555" stroke="#863ED5" stroke-width="3" stroke-linecap="round"/>
<path opacity="0.2" d="M227.281 160.871C213.026 149.792 175.965 128.084 141.755 129.887" stroke="#863ED5" stroke-width="3" stroke-linecap="round"/>
<path d="M236.056 130.559C236.056 130.559 237.166 126.672 239.277 127.783C239.277 127.783 237.944 190.739 240.165 215.278C240.721 221.384 246.052 229.712 248.162 232.821H245.386L244.608 235.375C244.608 235.375 236.389 221.496 236.056 216.055C234.389 191.627 235.278 136.443 236.056 130.559Z" fill="#54DAF5"/>
</g>
</g>
<defs>
<filter id="filter0_f_132_1151" x="-10" y="63" width="395" height="252" filterUnits="userSpaceOnUse" color-interpolation-filters="sRGB">
<feFlood flood-opacity="0" result="BackgroundImageFix"/>
<feBlend mode="normal" in="SourceGraphic" in2="BackgroundImageFix" result="shape"/>
<feGaussianBlur stdDeviation="25" result="effect1_foregroundBlur_132_1151"/>
</filter>
<linearGradient id="paint0_linear_132_1151" x1="24" y1="0" x2="317.443" y2="325.274" gradientUnits="userSpaceOnUse">
<stop stop-color="#DF98FA"/>
<stop offset="1" stop-color="#9055FF"/>
</linearGradient>
<clipPath id="clip0_132_1151">
<rect x="24" width="327" height="257" rx="20" fill="white"/>
</clipPath>
</defs>
</svg>
