<svg width="33" height="32" viewBox="0 0 33 32" fill="none" xmlns="http://www.w3.org/2000/svg">
<g clip-path="url(#clip0_1102_1539)">
<g clip-path="url(#clip1_1102_1539)">
<path d="M23.4503 24.806V23.8244C23.4503 22.2609 22.579 20.8553 21.1769 20.1559L18.5151 18.8286V13.8711C18.5151 12.5642 17.9059 11.3674 16.8865 10.6014C16.9397 10.3126 17.1168 10.0696 17.3471 9.99325C19.0299 9.43478 20.1601 7.87066 20.1601 6.10098C20.1601 3.56594 17.889 1.64548 15.3626 2.0552C13.4088 2.37173 11.9348 4.18692 11.9348 6.27658V9.04924C9.88472 11.2126 8.64477 14.1437 8.64477 17.3038V21.9371C8.64477 23.165 8.98814 24.3401 9.62903 25.3539C8.0921 25.9485 6.99976 27.4394 6.99976 29.1795V29.9999H22.6276C23.9881 29.9999 25.0953 28.8957 25.0953 27.5389C25.0958 26.9773 24.943 26.4262 24.6532 25.9447C24.3633 25.4633 23.9475 25.0696 23.4503 24.806V24.806ZM20.6004 21.7102C21.3478 22.1526 21.8051 22.9473 21.8051 23.8244V24.2133L19.9418 23.5937L20.6004 21.7102ZM13.58 6.27658C13.58 4.98267 14.4599 3.86371 15.6269 3.67444C17.2052 3.41812 18.5151 4.62956 18.5151 6.10098C18.5157 6.61777 18.353 7.12161 18.0501 7.54092C17.7472 7.96024 17.3195 8.27368 16.8278 8.43674C16.1786 8.65209 15.674 9.15369 15.4159 9.79091L13.58 8.87533V6.27658ZM10.2898 17.3038C10.2898 14.7271 11.2254 12.2933 12.9357 10.3886L15.5058 11.67C16.3474 12.0893 16.87 12.9333 16.87 13.8711V19.8425L19.1189 20.9642L18.3812 23.0753L15.225 22.0257V14.3044H13.58V23.2082L16.0715 24.0366C14.9744 25.2512 13.2377 25.7402 11.6185 25.2021L11.5664 25.1846C10.7422 24.298 10.2898 23.1528 10.2898 21.937V17.3038ZM22.6276 28.3592H8.78569C9.11195 27.441 9.97021 26.7722 10.9889 26.7218C11.0619 26.7402 11.8335 27.0604 12.9582 27.0604C14.8339 27.0604 16.6254 26.157 17.7309 24.588L22.4521 26.1574C22.743 26.2539 22.9959 26.4392 23.1751 26.6872C23.3543 26.9352 23.4506 27.2332 23.4504 27.5389C23.4504 27.9912 23.0813 28.3592 22.6276 28.3592H22.6276Z" fill="#994EF8"/>
</g>
</g>
<defs>
<clipPath id="clip0_1102_1539">
<rect width="32.0856" height="32" fill="white" transform="translate(0.390381)"/>
</clipPath>
<clipPath id="clip1_1102_1539">
<rect width="28.0749" height="28" fill="white" transform="translate(2.39575 2)"/>
</clipPath>
</defs>
</svg>
