<svg width="34" height="26" viewBox="0 0 34 26" fill="none" xmlns="http://www.w3.org/2000/svg">
<path d="M18.3393 4.63366C18.529 4.36287 18.7943 4.15401 19.1021 4.03319C19.4099 3.91236 19.7464 3.88493 20.0697 3.95433C20.1029 3.58603 20.2563 3.23886 20.5062 2.9663C20.7561 2.69374 21.0887 2.51092 21.4528 2.44598C21.6647 2.40866 21.8819 2.4129 22.0923 2.45847C22.1244 2.08984 22.2775 1.74216 22.5277 1.4695C22.7778 1.19685 23.1111 1.01449 23.4756 0.950799C23.8401 0.887106 24.2154 0.945641 24.5433 1.1173C24.8711 1.28897 25.133 1.56413 25.2882 1.90002C25.5227 1.75439 25.7893 1.66855 26.0646 1.65004C26.34 1.63152 26.6157 1.68089 26.8675 1.79382C27.1193 1.90675 27.3395 2.07978 27.5089 2.29772C27.6782 2.51566 27.7914 2.77183 27.8386 3.04375L29.3997 11.9819L29.8891 11.5155L29.6612 10.21C29.586 9.80981 29.6541 9.39591 29.8534 9.04086C30.0528 8.68581 30.3708 8.41226 30.7516 8.26814C30.983 8.18674 31.2293 8.1567 31.4734 8.1801C31.7175 8.20351 31.9536 8.27979 32.1653 8.40366C32.3769 8.52753 32.5591 8.69601 32.699 8.89738C32.839 9.09876 32.9335 9.3282 32.9758 9.56976L33.2658 11.2322C33.2787 11.3073 33.2765 11.3841 33.2592 11.4583L32.2743 15.6269C32.2459 15.7459 32.1796 15.8525 32.0854 15.9306L28.8454 18.6163L29.7575 23.8361C29.7831 23.9831 29.7493 24.1342 29.6635 24.2562C29.5776 24.3782 29.4469 24.4611 29.2999 24.4868L23.759 25.4547C23.7269 25.4603 23.6943 25.4632 23.6618 25.4631C23.5294 25.4629 23.4014 25.4161 23.3002 25.331C23.1989 25.2458 23.1309 25.1277 23.108 24.9973L22.2249 19.9405C21.7278 19.9 21.2581 19.6959 20.8894 19.36C20.5208 19.0241 20.2739 18.5754 20.1875 18.0842L18.058 5.89433C18.0193 5.67604 18.0243 5.45224 18.0725 5.23586C18.1208 5.01948 18.2115 4.81481 18.3393 4.63366V4.63366Z" fill="#FFAB91"/>
<path d="M26.4612 18.04L27.6425 24.7787L29.3019 24.4862C29.4487 24.46 29.5792 24.3765 29.6646 24.2542C29.75 24.1319 29.7834 23.9807 29.7575 23.8337L28.8462 18.6137L32.0862 15.9306C32.1798 15.8525 32.245 15.7458 32.2719 15.6269L33.2619 11.4588C33.2778 11.3848 33.2797 11.3084 33.2675 11.2338L32.975 9.56875C32.9334 9.32708 32.8395 9.09741 32.6999 8.89585C32.5602 8.69429 32.3782 8.52571 32.1665 8.40192C31.9548 8.27812 31.7186 8.20212 31.4745 8.17922C31.2303 8.15633 30.9841 8.1871 30.7531 8.26938C30.6592 8.30142 30.5687 8.34288 30.4831 8.39312L30.9894 11.2788L30.2131 14.5581L26.6581 17.5112C26.5812 17.5739 26.5224 17.6559 26.4878 17.7488C26.4531 17.8418 26.444 17.9423 26.4612 18.04Z" fill="#F4947A"/>
<path d="M24.9819 16.105L26.09 15.9138C26.0255 15.5499 26.0335 15.1769 26.1135 14.8161C26.1934 14.4553 26.3438 14.1139 26.556 13.8113C26.7681 13.5088 27.0379 13.2511 27.3498 13.053C27.6618 12.8549 28.0097 12.7203 28.3738 12.6569L28.9306 12.5612C29.069 12.5349 29.1927 12.4582 29.2779 12.346C29.363 12.2338 29.4037 12.0941 29.3919 11.9538C29.3919 11.9369 29.3863 11.9256 29.3863 11.9088L27.8338 3.02125C27.7689 2.68207 27.6023 2.37069 27.3561 2.12853C27.1099 1.88637 26.7958 1.7249 26.4556 1.66563L28.1825 11.5488C27.1541 11.7289 26.2393 12.31 25.6391 13.1644C25.039 14.0187 24.8026 15.0764 24.9819 16.105Z" fill="#F4947A"/>
<path d="M21.2131 10.885L20.8362 10.9525L21.0387 12.0606L27.3669 10.9131L27.1644 9.805L26.7481 9.87812L25.3475 1.86813C25.325 1.87938 25.3081 1.89063 25.2856 1.90188C25.1715 1.65469 24.9994 1.4387 24.7839 1.27222C24.5685 1.10575 24.3161 0.993714 24.0481 0.945625L24.515 3.62312L25.64 10.0806L24.5375 10.2831L22.94 1.1425C22.7169 1.26234 22.5259 1.43404 22.3831 1.64313C22.2169 1.88522 22.1161 2.1662 22.0906 2.45875C22.0686 2.45228 22.046 2.4485 22.0231 2.4475L23.4294 10.48L22.3212 10.6825L20.9206 2.64438C20.682 2.77596 20.4796 2.96445 20.3315 3.1931C20.1833 3.42175 20.0939 3.68348 20.0712 3.955C20.0474 3.94809 20.0229 3.94431 19.9981 3.94375L21.2131 10.885Z" fill="#F4947A"/>
<path d="M18.0575 5.89563L20.1894 18.085C20.2751 18.5763 20.5217 19.0252 20.8902 19.3612C21.2588 19.6972 21.7285 19.9012 22.2256 19.9412L23.1087 24.9981C23.1317 25.128 23.1994 25.2458 23.3001 25.3311C23.4007 25.4164 23.5281 25.4637 23.66 25.465C23.7173 25.465 23.7709 25.4517 24.3125 25.3581L23.2494 19.2606C23.2222 19.1142 23.1386 18.9844 23.0165 18.8991C22.8944 18.8139 22.7437 18.78 22.5969 18.805C22.303 18.8554 22.0012 18.7871 21.7576 18.6153C21.514 18.4434 21.3485 18.1819 21.2975 17.8881L18.8956 4.135C18.6726 4.25484 18.4816 4.42654 18.3387 4.63562C18.2105 4.81642 18.1196 5.02097 18.0713 5.23731C18.023 5.45366 18.0183 5.67745 18.0575 5.89563V5.89563Z" fill="#F4947A"/>
<path d="M15.6607 4.63366C15.471 4.36287 15.2057 4.15401 14.8979 4.03319C14.5901 3.91236 14.2536 3.88493 13.9303 3.95433C13.8971 3.58603 13.7437 3.23886 13.4938 2.9663C13.2439 2.69374 12.9113 2.51092 12.5472 2.44598C12.3353 2.40866 12.1181 2.4129 11.9077 2.45847C11.8756 2.08984 11.7225 1.74216 11.4723 1.4695C11.2222 1.19685 10.8889 1.01449 10.5244 0.950799C10.1599 0.887106 9.78456 0.945641 9.45675 1.1173C9.12894 1.28897 8.86704 1.56413 8.71178 1.90002C8.47735 1.75439 8.21074 1.66855 7.93538 1.65004C7.66002 1.63152 7.38433 1.68089 7.13251 1.79382C6.88069 1.90675 6.66045 2.07978 6.49113 2.29772C6.32181 2.51566 6.20859 2.77183 6.1614 3.04375L4.6003 11.9819L4.11092 11.5155L4.33879 10.21C4.41399 9.80981 4.34593 9.39591 4.14656 9.04086C3.94719 8.68581 3.62922 8.41226 3.24838 8.26814C3.01704 8.18674 2.77075 8.1567 2.52663 8.1801C2.2825 8.20351 2.0464 8.27979 1.83474 8.40366C1.62308 8.52753 1.44093 8.69601 1.30096 8.89738C1.16098 9.09876 1.06654 9.3282 1.0242 9.56976L0.734179 11.232C0.721276 11.307 0.723514 11.3839 0.74076 11.4581L1.7257 15.6269C1.75408 15.7459 1.82039 15.8525 1.91464 15.9306L5.15464 18.6163L4.24249 23.8361C4.2169 23.9831 4.25073 24.1342 4.33655 24.2562C4.42236 24.3782 4.55313 24.4611 4.70009 24.4868L10.241 25.4547C10.2731 25.4603 10.3057 25.4632 10.3382 25.4631C10.4706 25.4629 10.5986 25.4161 10.6998 25.331C10.8011 25.2458 10.8691 25.1277 10.892 24.9973L11.7751 19.9405C12.2722 19.9 12.7419 19.6959 13.1105 19.36C13.4792 19.0241 13.7261 18.5754 13.8125 18.0842L15.9416 5.89405C15.9803 5.67582 15.9754 5.45209 15.9272 5.23576C15.879 5.01944 15.7884 4.8148 15.6607 4.63366V4.63366Z" fill="#FFAB91"/>
<path d="M7.53875 18.04L6.3575 24.7787L4.69812 24.4862C4.55127 24.46 4.42083 24.3765 4.33541 24.2542C4.25 24.1319 4.21659 23.9807 4.2425 23.8337L5.15375 18.6137L1.91375 15.9306C1.82021 15.8525 1.75499 15.7458 1.72812 15.6269L0.738121 11.4588C0.722208 11.3848 0.720301 11.3084 0.732496 11.2338L1.025 9.56875C1.06655 9.32708 1.16045 9.09741 1.30011 8.89585C1.43977 8.69429 1.62182 8.52571 1.8335 8.40192C2.04518 8.27812 2.28137 8.20212 2.52552 8.17922C2.76967 8.15633 3.01587 8.1871 3.24687 8.26938C3.34081 8.30142 3.43127 8.34288 3.51687 8.39312L3.01062 11.2788L3.78687 14.5581L7.34187 17.5112C7.4188 17.5739 7.47762 17.6559 7.51223 17.7488C7.54684 17.8418 7.556 17.9423 7.53875 18.04V18.04Z" fill="#F4947A"/>
<path d="M9.01813 16.105L7.91001 15.9138C7.97447 15.5499 7.96649 15.1769 7.88654 14.8161C7.80658 14.4553 7.65622 14.1139 7.44407 13.8113C7.23191 13.5088 6.96214 13.2511 6.6502 13.053C6.33827 12.8549 5.99031 12.7203 5.62626 12.6569L5.06938 12.5612C4.93103 12.5349 4.80734 12.4582 4.72216 12.346C4.63699 12.2338 4.59637 12.0941 4.60813 11.9538C4.60813 11.9369 4.61376 11.9256 4.61376 11.9088L6.16626 3.02125C6.23113 2.68207 6.39774 2.37069 6.64392 2.12853C6.8901 1.88637 7.20418 1.7249 7.54438 1.66563L5.81751 11.5488C6.84593 11.7289 7.76074 12.31 8.3609 13.1644C8.96106 14.0187 9.19745 15.0764 9.01813 16.105V16.105Z" fill="#F4947A"/>
<path d="M12.7869 10.885L13.1637 10.9525L12.9612 12.0606L6.63312 10.9131L6.83562 9.805L7.25187 9.87812L8.65249 1.86813C8.67499 1.87938 8.69187 1.89063 8.71437 1.90188C8.8285 1.65469 9.00059 1.4387 9.21603 1.27222C9.43147 1.10575 9.68389 0.993714 9.95187 0.945625L9.48499 3.62312L8.35999 10.0806L9.46249 10.2831L11.06 1.1425C11.2831 1.26234 11.474 1.43404 11.6169 1.64313C11.7831 1.88522 11.8838 2.1662 11.9094 2.45875C11.9313 2.45228 11.954 2.4485 11.9769 2.4475L10.5706 10.48L11.6787 10.6825L13.0794 2.64438C13.318 2.77596 13.5203 2.96445 13.6685 3.1931C13.8167 3.42175 13.9061 3.68348 13.9287 3.955C13.9525 3.94809 13.9771 3.94431 14.0019 3.94375L12.7869 10.885Z" fill="#F4947A"/>
<path d="M15.9425 5.89563L13.8106 18.085C13.7249 18.5763 13.4783 19.0252 13.1098 19.3612C12.7412 19.6972 12.2715 19.9012 11.7744 19.9412L10.8913 24.9981C10.8683 25.128 10.8006 25.2458 10.6999 25.3311C10.5993 25.4164 10.4719 25.4637 10.34 25.465C10.2827 25.465 10.2291 25.4517 9.6875 25.3581L10.7506 19.2606C10.7778 19.1142 10.8614 18.9844 10.9835 18.8991C11.1056 18.8139 11.2563 18.78 11.4031 18.805C11.697 18.8554 11.9988 18.7871 12.2424 18.6153C12.486 18.4434 12.6515 18.1819 12.7025 17.8881L15.1044 4.135C15.3274 4.25484 15.5184 4.42654 15.6613 4.63562C15.7895 4.81642 15.8804 5.02097 15.9287 5.23731C15.977 5.45366 15.9817 5.67745 15.9425 5.89563V5.89563Z" fill="#F4947A"/>
</svg>
